<svg width="170" height="32" viewBox="0 0 170 32" xmlns="http://www.w3.org/2000/svg"><title>logo-horse-white</title><g fill="#FFF" fill-rule="evenodd"><path d="M4.254 25.282c-4.33-6.39-1.274-11.38-1.274-11.38-.71-.21-2.98 1.28-2.98 1.28 1.277-4.68 8.3-8.656 8.3-8.656-.78-.285-2.98.282-2.98.282 5.746-5.53 12.77-3.474 12.77-3.474C18.302 2.127 21.78 0 21.78 0c-.356.352-.5 2.27-.5 2.27.355-.64 1.492-1.277 1.492-1.277-.638 1.487 0 4.68 0 4.68 1.844 1.845 3.9 8.23 3.9 8.23l.784 1.135c.993 1.42.628 3.655-.356 4.184-3.688 1.99-4.045-1.63-4.045-1.63-3.05-.355-5.32-3.76-5.32-3.76-4.114 2.127-1.823 8.13-.047 10.434 2.282 2.955.61 7.734.61 7.734s-9.77-.405-14.044-6.718zM40.772 5v7.235c1.217-1.423 2.67-2.134 4.362-2.134.868 0 1.65.162 2.35.484.697.322 1.223.734 1.576 1.235.354.5.595 1.055.725 1.663.13.61.195 1.553.195 2.832v8.363h-3.772v-7.53c0-1.495-.072-2.443-.215-2.846-.143-.403-.396-.723-.758-.96-.363-.237-.817-.355-1.363-.355-.626 0-1.185.152-1.677.456-.493.304-.853.763-1.08 1.376-.23.612-.343 1.518-.343 2.717v7.14H37V5h3.772zm11.015 12.35c0-1.254.31-2.466.927-3.64.617-1.17 1.492-2.066 2.624-2.683 1.132-.618 2.396-.926 3.792-.926 2.156 0 3.924.7 5.302 2.1 1.378 1.402 2.067 3.17 2.067 5.31 0 2.157-.697 3.944-2.088 5.362C63.02 24.292 61.268 25 59.157 25c-1.307 0-2.553-.295-3.74-.886-1.184-.59-2.086-1.456-2.703-2.597-.618-1.14-.927-2.53-.927-4.168zm3.866.2c0 1.414.336 2.497 1.007 3.25.67.75 1.5 1.126 2.483 1.126.985 0 1.81-.376 2.477-1.127.666-.753 1-1.845 1-3.277 0-1.395-.334-2.47-1-3.22-.667-.753-1.492-1.13-2.477-1.13-.984 0-1.812.377-2.483 1.13-.67.75-1.007 1.833-1.007 3.247zm16.264 7.128h-3.772V10.423h3.504v2.027c.598-.958 1.137-1.59 1.616-1.893.48-.304 1.023-.456 1.63-.456.86 0 1.688.238 2.484.712l-1.167 3.29c-.636-.413-1.226-.62-1.772-.62-.527 0-.975.147-1.342.437-.366.29-.655.816-.865 1.577-.21.76-.316 2.353-.316 4.778v4.403zm4.425 0v-3.772h3.772v3.772h-3.772zm5.164-4.067l3.785-.576c.162.733.49 1.29.98 1.67.493.38 1.182.57 2.068.57.975 0 1.71-.178 2.2-.536.332-.25.498-.586.498-1.006 0-.287-.09-.524-.27-.712-.187-.18-.607-.344-1.26-.497-3.043-.67-4.97-1.284-5.786-1.838-1.127-.77-1.69-1.84-1.69-3.208 0-1.235.487-2.273 1.462-3.115.976-.84 2.488-1.26 4.537-1.26 1.95 0 3.4.316 4.348.952.95.635 1.602 1.575 1.96 2.818l-3.557.658c-.15-.555-.44-.98-.865-1.275-.425-.295-1.03-.443-1.82-.443-.992 0-1.703.14-2.133.416-.286.197-.43.452-.43.765 0 .27.126.497.376.685.34.25 1.515.604 3.524 1.06 2.01.457 3.41 1.016 4.208 1.678.787.67 1.18 1.606 1.18 2.805 0 1.308-.545 2.43-1.637 3.37-1.09.94-2.706 1.41-4.845 1.41-1.942 0-3.48-.394-4.61-1.18-1.133-.79-1.873-1.858-2.222-3.21zm23.727-.47l3.758.632c-.482 1.378-1.245 2.427-2.288 3.147-1.042.72-2.346 1.08-3.912 1.08-2.48 0-4.313-.81-5.504-2.43-.94-1.297-1.41-2.935-1.41-4.912 0-2.363.618-4.213 1.853-5.55 1.234-1.338 2.796-2.007 4.684-2.007 2.12 0 3.794.7 5.02 2.1 1.226 1.402 1.812 3.547 1.758 6.438h-9.45c.028 1.118.332 1.988.913 2.61.582.622 1.307.933 2.175.933.59 0 1.087-.16 1.49-.482.403-.322.707-.84.913-1.557zm.214-3.81c-.026-1.093-.308-1.923-.845-2.49-.537-.57-1.19-.853-1.96-.853-.823 0-1.503.3-2.04.9-.537.598-.8 1.413-.792 2.442h5.637zm5.674 8.348v-3.772h3.773v3.772h-3.772zm18.923-10.04l-3.72.67c-.124-.742-.408-1.3-.85-1.677-.444-.375-1.02-.563-1.726-.563-.94 0-1.69.324-2.248.973-.56.65-.84 1.734-.84 3.255 0 1.692.284 2.886.852 3.584.57.697 1.33 1.046 2.29 1.046.715 0 1.3-.203 1.757-.61.456-.408.778-1.108.966-2.1l3.704.63c-.384 1.7-1.123 2.984-2.214 3.852-1.092.868-2.555 1.302-4.39 1.302-2.085 0-3.747-.658-4.986-1.973-1.24-1.316-1.86-3.137-1.86-5.463 0-2.354.623-4.186 1.867-5.497 1.243-1.31 2.926-1.966 5.047-1.966 1.736 0 3.116.374 4.14 1.12 1.025.75 1.76 1.887 2.21 3.418zm.84 2.71c0-1.252.31-2.464.927-3.637.617-1.17 1.492-2.066 2.624-2.683 1.132-.618 2.396-.926 3.792-.926 2.157 0 3.924.7 5.302 2.1 1.378 1.402 2.067 3.17 2.067 5.31 0 2.157-.696 3.944-2.087 5.362-1.392 1.42-3.143 2.128-5.255 2.128-1.307 0-2.553-.295-3.738-.886-1.186-.59-2.088-1.456-2.705-2.597-.618-1.14-.926-2.53-.926-4.168zm3.866.202c0 1.414.335 2.497 1.006 3.25.67.75 1.5 1.126 2.483 1.126.984 0 1.81-.376 2.476-1.127.667-.753 1-1.845 1-3.277 0-1.395-.333-2.47-1-3.22-.667-.753-1.492-1.13-2.477-1.13-.985 0-1.813.377-2.484 1.13-.67.75-1.007 1.833-1.007 3.247zm12.37-7.127h3.477v1.946c1.244-1.513 2.725-2.27 4.443-2.27.913 0 1.705.19 2.376.564.67.376 1.222.944 1.65 1.705.628-.762 1.303-1.33 2.028-1.706.725-.375 1.5-.563 2.322-.563 1.047 0 1.933.213 2.658.638.725.425 1.266 1.05 1.624 1.873.26.61.39 1.594.39 2.954v9.114h-3.773V16.53c0-1.414-.13-2.326-.39-2.738-.348-.537-.885-.805-1.61-.805-.528 0-1.024.16-1.49.483-.465.322-.8.794-1.006 1.416-.207.622-.31 1.604-.31 2.946v6.846h-3.772v-7.812c0-1.387-.067-2.282-.2-2.685-.135-.4-.343-.7-.625-.898-.282-.197-.665-.295-1.148-.295-.582 0-1.105.156-1.57.47-.466.313-.8.764-1 1.355-.202.59-.302 1.57-.302 2.94v6.926h-3.772V10.423z"/></g></svg>